# xmcd
#
# Track frame offsets:
#	150
#	16882
#	26984
#	43099
#	61662
#	80278
#	95550
#	112971
#	130500
#	143664
#	155693
#	167457
#	183298
#	197800
#	213048
#	226562
#	240662
#	260702
#
# Disc length: 3718
#
# Revision: 3
# Processed by: cddbd v1.5.1PL0 Copyright (c) Steve Scherf et al.
# Submitted via: VisiTrax 2.9.5.180 - For more info visit www.synapsa.com
# Normalized: r2:DSETVAR1
#
DISCID=e00e8412
DTITLE=Various Artist - CDX 324 August 2003
DYEAR=2003
DGENRE=Country
TTITLE0=George Strait - Cowboys like us
TTITLE1=Tracy Byrd - Drinkin' bone
TTITLE2=Roxie Dean - Everyday girl
TTITLE3=Toby Keith - I love this bar
TTITLE4=Amy Dalley - I think you're beautiful
TTITLE5=Brad Wolf - Strictly business
TTITLE6=Shelby Lynne - Telephone
TTITLE7=Lonestar - Walking in Memphis
TTITLE8=Kevin Denney - Walk out of the rain
TTITLE9=Statler Brothers - I'll go to my grave loving you
TTITLE10=Merle Haggard - That's the news
TTITLE11=Grandstaff - These things I want
TTITLE12=Memarie - Leave me alone
TTITLE13=Johnny Lee - Stand by me
TTITLE14=Duane Michaels - Ladies choice
TTITLE15=Mike Dekle - She wants to know love
TTITLE16=Raquel Rae - That's not what you do
TTITLE17=Jimmy Wayne - I love you this much
EXTD=
EXTT0=
EXTT1=
EXTT2=
EXTT3=
EXTT4=
EXTT5=
EXTT6=
EXTT7=
EXTT8=
EXTT9=
EXTT10=
EXTT11=
EXTT12=
EXTT13=
EXTT14=
EXTT15=
EXTT16=
EXTT17=
PLAYORDER=
